<mxfile host="Electron" agent="Mozilla/5.0 (Macintosh; Intel Mac OS X 10_15_7) AppleWebKit/537.36 (KHTML, like Gecko) draw.io/24.7.17 Chrome/128.0.6613.36 Electron/32.0.1 Safari/537.36" version="24.7.17">
  <diagram name="Page-1" id="yf_okMWjemsH9DEp6Tv9">
    <mxGraphModel dx="1123" dy="674" grid="1" gridSize="10" guides="1" tooltips="1" connect="1" arrows="1" fold="1" page="1" pageScale="1" pageWidth="827" pageHeight="1169" math="0" shadow="0">
      <root>
        <mxCell id="0" />
        <mxCell id="1" parent="0" />
        <mxCell id="v6Au0G6ECJgNQy8wndKl-10" value="&lt;h1 style=&quot;margin-top: 0px;&quot;&gt;&lt;font style=&quot;font-size: 18px;&quot; color=&quot;#808080&quot;&gt;Cylinder&lt;/font&gt;&lt;/h1&gt;&lt;p&gt;&lt;font color=&quot;#808080&quot;&gt;The cylinder is defined by radius and height and its center is located at the origin (0,0,0).&lt;/font&gt;&lt;/p&gt;" style="text;html=1;whiteSpace=wrap;overflow=hidden;rounded=0;" vertex="1" parent="1">
          <mxGeometry x="10" y="120" width="180" height="120" as="geometry" />
        </mxCell>
        <mxCell id="v6Au0G6ECJgNQy8wndKl-11" value="&lt;h1 style=&quot;margin-top: 0px;&quot;&gt;&lt;font color=&quot;#808080&quot;&gt;RVM Primitives&lt;/font&gt;&lt;/h1&gt;&lt;p&gt;&lt;font color=&quot;#808080&quot;&gt;Following a list of all the primitives that are being used in the RVM format to describe shapes.&lt;/font&gt;&lt;/p&gt;" style="text;html=1;whiteSpace=wrap;overflow=hidden;rounded=0;" vertex="1" parent="1">
          <mxGeometry x="10" y="10" width="570" height="70" as="geometry" />
        </mxCell>
        <mxCell id="v6Au0G6ECJgNQy8wndKl-13" value="" style="group" vertex="1" connectable="0" parent="1">
          <mxGeometry x="190" y="120" width="250" height="200" as="geometry" />
        </mxCell>
        <mxCell id="v6Au0G6ECJgNQy8wndKl-1" value="" style="shape=cylinder3;whiteSpace=wrap;html=1;boundedLbl=1;backgroundOutline=1;size=15;strokeColor=#808080;" vertex="1" parent="v6Au0G6ECJgNQy8wndKl-13">
          <mxGeometry y="50" width="170" height="120" as="geometry" />
        </mxCell>
        <mxCell id="v6Au0G6ECJgNQy8wndKl-2" value="" style="endArrow=baseDash;html=1;rounded=0;dashed=1;startArrow=baseDash;startFill=0;endFill=0;strokeColor=#808080;" edge="1" parent="v6Au0G6ECJgNQy8wndKl-13">
          <mxGeometry width="50" height="50" relative="1" as="geometry">
            <mxPoint x="190" y="160" as="sourcePoint" />
            <mxPoint x="190" y="70" as="targetPoint" />
          </mxGeometry>
        </mxCell>
        <mxCell id="v6Au0G6ECJgNQy8wndKl-3" value="Height" style="text;html=1;align=center;verticalAlign=middle;whiteSpace=wrap;rounded=0;fontColor=#808080;" vertex="1" parent="v6Au0G6ECJgNQy8wndKl-13">
          <mxGeometry x="190" y="100" width="60" height="30" as="geometry" />
        </mxCell>
        <mxCell id="v6Au0G6ECJgNQy8wndKl-5" value="" style="endArrow=none;dashed=1;html=1;dashPattern=1 3;strokeWidth=2;rounded=0;fillColor=#f8cecc;strokeColor=#b85450;" edge="1" parent="v6Au0G6ECJgNQy8wndKl-13">
          <mxGeometry width="50" height="50" relative="1" as="geometry">
            <mxPoint x="85" y="200" as="sourcePoint" />
            <mxPoint x="85" as="targetPoint" />
          </mxGeometry>
        </mxCell>
        <mxCell id="v6Au0G6ECJgNQy8wndKl-6" value="Radius" style="text;html=1;align=center;verticalAlign=middle;whiteSpace=wrap;rounded=0;fontColor=#808080;" vertex="1" parent="v6Au0G6ECJgNQy8wndKl-13">
          <mxGeometry x="100" y="10" width="60" height="30" as="geometry" />
        </mxCell>
        <mxCell id="v6Au0G6ECJgNQy8wndKl-8" value="" style="endArrow=baseDash;html=1;rounded=0;dashed=1;startArrow=baseDash;startFill=0;endFill=0;strokeColor=#808080;" edge="1" parent="v6Au0G6ECJgNQy8wndKl-13">
          <mxGeometry width="50" height="50" relative="1" as="geometry">
            <mxPoint x="170" y="40" as="sourcePoint" />
            <mxPoint x="90" y="40" as="targetPoint" />
          </mxGeometry>
        </mxCell>
        <mxCell id="v6Au0G6ECJgNQy8wndKl-14" value="&lt;h1 style=&quot;margin-top: 0px;&quot;&gt;&lt;font style=&quot;font-size: 18px;&quot; color=&quot;#808080&quot;&gt;Box&lt;/font&gt;&lt;/h1&gt;&lt;p&gt;&lt;font color=&quot;#808080&quot;&gt;The box is defined by the the 3 lengths along each axis (lenX, lenY, lenZ) and its center is located at the origin (0,0,0).&lt;/font&gt;&lt;/p&gt;" style="text;html=1;whiteSpace=wrap;overflow=hidden;rounded=0;" vertex="1" parent="1">
          <mxGeometry x="480" y="120" width="180" height="120" as="geometry" />
        </mxCell>
        <mxCell id="v6Au0G6ECJgNQy8wndKl-21" value="" style="group" vertex="1" connectable="0" parent="1">
          <mxGeometry x="660" y="120" width="230" height="170" as="geometry" />
        </mxCell>
        <mxCell id="v6Au0G6ECJgNQy8wndKl-12" value="" style="shape=cube;whiteSpace=wrap;html=1;boundedLbl=1;backgroundOutline=1;darkOpacity=0.05;darkOpacity2=0.1;size=40;strokeColor=#808080;" vertex="1" parent="v6Au0G6ECJgNQy8wndKl-21">
          <mxGeometry x="50" width="180" height="125" as="geometry" />
        </mxCell>
        <mxCell id="v6Au0G6ECJgNQy8wndKl-15" value="" style="endArrow=baseDash;html=1;rounded=0;dashed=1;startArrow=baseDash;startFill=0;endFill=0;strokeColor=#808080;" edge="1" parent="v6Au0G6ECJgNQy8wndKl-21">
          <mxGeometry width="50" height="50" relative="1" as="geometry">
            <mxPoint x="30" y="80" as="sourcePoint" />
            <mxPoint x="30" as="targetPoint" />
          </mxGeometry>
        </mxCell>
        <mxCell id="v6Au0G6ECJgNQy8wndKl-16" value="lenZ" style="text;html=1;align=center;verticalAlign=middle;whiteSpace=wrap;rounded=0;fontColor=#808080;" vertex="1" parent="v6Au0G6ECJgNQy8wndKl-21">
          <mxGeometry y="24" width="30" height="30" as="geometry" />
        </mxCell>
        <mxCell id="v6Au0G6ECJgNQy8wndKl-17" value="" style="endArrow=baseDash;html=1;rounded=0;dashed=1;startArrow=baseDash;startFill=0;endFill=0;strokeColor=#808080;" edge="1" parent="v6Au0G6ECJgNQy8wndKl-21">
          <mxGeometry width="50" height="50" relative="1" as="geometry">
            <mxPoint x="230" y="140" as="sourcePoint" />
            <mxPoint x="90" y="140" as="targetPoint" />
          </mxGeometry>
        </mxCell>
        <mxCell id="v6Au0G6ECJgNQy8wndKl-18" value="lenX" style="text;html=1;align=center;verticalAlign=middle;whiteSpace=wrap;rounded=0;fontColor=#808080;" vertex="1" parent="v6Au0G6ECJgNQy8wndKl-21">
          <mxGeometry x="150" y="140" width="30" height="30" as="geometry" />
        </mxCell>
        <mxCell id="v6Au0G6ECJgNQy8wndKl-19" value="" style="endArrow=baseDash;html=1;rounded=0;dashed=1;startArrow=baseDash;startFill=0;endFill=0;strokeColor=#808080;" edge="1" parent="v6Au0G6ECJgNQy8wndKl-21">
          <mxGeometry width="50" height="50" relative="1" as="geometry">
            <mxPoint x="80" y="130" as="sourcePoint" />
            <mxPoint x="40" y="90" as="targetPoint" />
          </mxGeometry>
        </mxCell>
        <mxCell id="v6Au0G6ECJgNQy8wndKl-20" value="lenY" style="text;html=1;align=center;verticalAlign=middle;whiteSpace=wrap;rounded=0;fontColor=#808080;" vertex="1" parent="v6Au0G6ECJgNQy8wndKl-21">
          <mxGeometry x="30" y="110" width="30" height="30" as="geometry" />
        </mxCell>
        <mxCell id="v6Au0G6ECJgNQy8wndKl-22" value="&lt;h1 style=&quot;margin-top: 0px;&quot;&gt;&lt;font style=&quot;font-size: 18px;&quot; color=&quot;#808080&quot;&gt;Sphere&lt;/font&gt;&lt;/h1&gt;&lt;p&gt;&lt;font color=&quot;#808080&quot;&gt;The sphere is defined by a diameter and its center is located at the origin (0,0,0).&lt;/font&gt;&lt;/p&gt;" style="text;html=1;whiteSpace=wrap;overflow=hidden;rounded=0;" vertex="1" parent="1">
          <mxGeometry y="360" width="180" height="120" as="geometry" />
        </mxCell>
        <mxCell id="v6Au0G6ECJgNQy8wndKl-34" value="&lt;h1 style=&quot;margin-top: 0px;&quot;&gt;&lt;font style=&quot;font-size: 18px;&quot;&gt;Polygons&lt;/font&gt;&lt;/h1&gt;&lt;p&gt;&lt;font&gt;Polygons is a last of polygons. Each polygons consists of a list of contours. The first one defines the boundary and the others define holes. Each contour consists of a closed loop defined by consecutive 3D points all located in a plane.&lt;/font&gt;&lt;/p&gt;" style="text;html=1;whiteSpace=wrap;overflow=hidden;rounded=0;fontColor=#808080;" vertex="1" parent="1">
          <mxGeometry x="480" y="360" width="180" height="180" as="geometry" />
        </mxCell>
        <mxCell id="v6Au0G6ECJgNQy8wndKl-46" value="" style="group" vertex="1" connectable="0" parent="1">
          <mxGeometry x="680" y="360" width="170" height="180" as="geometry" />
        </mxCell>
        <mxCell id="v6Au0G6ECJgNQy8wndKl-35" value="" style="endArrow=none;html=1;rounded=0;strokeColor=#808080;" edge="1" parent="v6Au0G6ECJgNQy8wndKl-46">
          <mxGeometry width="50" height="50" relative="1" as="geometry">
            <mxPoint as="sourcePoint" />
            <mxPoint x="40" y="40" as="targetPoint" />
          </mxGeometry>
        </mxCell>
        <mxCell id="v6Au0G6ECJgNQy8wndKl-36" value="" style="endArrow=none;html=1;rounded=0;strokeColor=#808080;" edge="1" parent="v6Au0G6ECJgNQy8wndKl-46">
          <mxGeometry width="50" height="50" relative="1" as="geometry">
            <mxPoint x="40" y="40" as="sourcePoint" />
            <mxPoint y="100" as="targetPoint" />
          </mxGeometry>
        </mxCell>
        <mxCell id="v6Au0G6ECJgNQy8wndKl-37" value="" style="endArrow=none;html=1;rounded=0;strokeColor=#808080;" edge="1" parent="v6Au0G6ECJgNQy8wndKl-46">
          <mxGeometry width="50" height="50" relative="1" as="geometry">
            <mxPoint x="40" y="140" as="sourcePoint" />
            <mxPoint y="100" as="targetPoint" />
          </mxGeometry>
        </mxCell>
        <mxCell id="v6Au0G6ECJgNQy8wndKl-38" value="" style="endArrow=none;html=1;rounded=0;strokeColor=#808080;" edge="1" parent="v6Au0G6ECJgNQy8wndKl-46">
          <mxGeometry width="50" height="50" relative="1" as="geometry">
            <mxPoint x="120" y="140" as="sourcePoint" />
            <mxPoint x="40" y="140" as="targetPoint" />
          </mxGeometry>
        </mxCell>
        <mxCell id="v6Au0G6ECJgNQy8wndKl-39" value="" style="endArrow=none;html=1;rounded=0;strokeColor=#808080;" edge="1" parent="v6Au0G6ECJgNQy8wndKl-46">
          <mxGeometry width="50" height="50" relative="1" as="geometry">
            <mxPoint x="170" y="120" as="sourcePoint" />
            <mxPoint x="120" y="140" as="targetPoint" />
          </mxGeometry>
        </mxCell>
        <mxCell id="v6Au0G6ECJgNQy8wndKl-40" value="" style="endArrow=none;html=1;rounded=0;strokeColor=#808080;" edge="1" parent="v6Au0G6ECJgNQy8wndKl-46">
          <mxGeometry width="50" height="50" relative="1" as="geometry">
            <mxPoint x="170" y="120" as="sourcePoint" />
            <mxPoint x="160" as="targetPoint" />
          </mxGeometry>
        </mxCell>
        <mxCell id="v6Au0G6ECJgNQy8wndKl-41" value="" style="endArrow=none;html=1;rounded=0;strokeColor=#808080;" edge="1" parent="v6Au0G6ECJgNQy8wndKl-46">
          <mxGeometry width="50" height="50" relative="1" as="geometry">
            <mxPoint x="160" as="sourcePoint" />
            <mxPoint as="targetPoint" />
          </mxGeometry>
        </mxCell>
        <mxCell id="v6Au0G6ECJgNQy8wndKl-42" value="Outer Contour" style="text;html=1;align=center;verticalAlign=middle;whiteSpace=wrap;rounded=0;fontColor=#808080;" vertex="1" parent="v6Au0G6ECJgNQy8wndKl-46">
          <mxGeometry x="70" y="150" width="30" height="30" as="geometry" />
        </mxCell>
        <mxCell id="v6Au0G6ECJgNQy8wndKl-44" value="" style="shape=hexagon;perimeter=hexagonPerimeter2;whiteSpace=wrap;html=1;fixedSize=1;fillColor=none;strokeColor=#808080;" vertex="1" parent="v6Au0G6ECJgNQy8wndKl-46">
          <mxGeometry x="65" y="20" width="60" height="50" as="geometry" />
        </mxCell>
        <mxCell id="v6Au0G6ECJgNQy8wndKl-45" value="Inner Contour (Hole)" style="text;html=1;align=center;verticalAlign=middle;whiteSpace=wrap;rounded=0;fontColor=#808080;" vertex="1" parent="v6Au0G6ECJgNQy8wndKl-46">
          <mxGeometry x="80" y="78" width="30" height="30" as="geometry" />
        </mxCell>
        <mxCell id="v6Au0G6ECJgNQy8wndKl-47" value="&lt;h1 style=&quot;margin-top: 0px;&quot;&gt;&lt;font style=&quot;font-size: 18px;&quot; color=&quot;#808080&quot;&gt;Pyramid&lt;/font&gt;&lt;/h1&gt;&lt;p&gt;&lt;font color=&quot;#808080&quot;&gt;A pyramid is defined by the 2D extent of its bottom and top cap followed by a symmetrical offset along the X and Y axis and finally its height. The center of the pyramid is located at the origin (0,0,0)&lt;/font&gt;&lt;/p&gt;" style="text;html=1;whiteSpace=wrap;overflow=hidden;rounded=0;" vertex="1" parent="1">
          <mxGeometry y="580" width="180" height="160" as="geometry" />
        </mxCell>
        <mxCell id="v6Au0G6ECJgNQy8wndKl-48" value="" style="group" vertex="1" connectable="0" parent="1">
          <mxGeometry x="190" y="360" width="240" height="170" as="geometry" />
        </mxCell>
        <mxCell id="v6Au0G6ECJgNQy8wndKl-30" value="" style="ellipse;whiteSpace=wrap;html=1;fillColor=none;strokeColor=#808080;" vertex="1" parent="v6Au0G6ECJgNQy8wndKl-48">
          <mxGeometry width="170" height="170" as="geometry" />
        </mxCell>
        <mxCell id="v6Au0G6ECJgNQy8wndKl-31" value="" style="ellipse;whiteSpace=wrap;html=1;fillColor=none;strokeColor=#808080;" vertex="1" parent="v6Au0G6ECJgNQy8wndKl-48">
          <mxGeometry y="50" width="170" height="70" as="geometry" />
        </mxCell>
        <mxCell id="v6Au0G6ECJgNQy8wndKl-32" value="" style="endArrow=baseDash;html=1;rounded=0;dashed=1;startArrow=baseDash;startFill=0;endFill=0;strokeColor=#808080;" edge="1" parent="v6Au0G6ECJgNQy8wndKl-48">
          <mxGeometry width="50" height="50" relative="1" as="geometry">
            <mxPoint x="180" y="170" as="sourcePoint" />
            <mxPoint x="180" as="targetPoint" />
          </mxGeometry>
        </mxCell>
        <mxCell id="v6Au0G6ECJgNQy8wndKl-33" value="Diameter" style="text;html=1;align=center;verticalAlign=middle;whiteSpace=wrap;rounded=0;fontColor=#808080;" vertex="1" parent="v6Au0G6ECJgNQy8wndKl-48">
          <mxGeometry x="180" y="70" width="60" height="30" as="geometry" />
        </mxCell>
        <mxCell id="v6Au0G6ECJgNQy8wndKl-49" value="" style="endArrow=none;html=1;rounded=0;" edge="1" parent="1">
          <mxGeometry width="50" height="50" relative="1" as="geometry">
            <mxPoint x="280" y="840" as="sourcePoint" />
            <mxPoint x="440" y="840" as="targetPoint" />
          </mxGeometry>
        </mxCell>
        <mxCell id="v6Au0G6ECJgNQy8wndKl-50" value="" style="endArrow=none;html=1;rounded=0;" edge="1" parent="1">
          <mxGeometry width="50" height="50" relative="1" as="geometry">
            <mxPoint x="440" y="840" as="sourcePoint" />
            <mxPoint x="520" y="760" as="targetPoint" />
          </mxGeometry>
        </mxCell>
        <mxCell id="v6Au0G6ECJgNQy8wndKl-51" value="" style="endArrow=none;html=1;rounded=0;dashed=1;" edge="1" parent="1">
          <mxGeometry width="50" height="50" relative="1" as="geometry">
            <mxPoint x="280" y="840" as="sourcePoint" />
            <mxPoint x="360" y="760" as="targetPoint" />
          </mxGeometry>
        </mxCell>
        <mxCell id="v6Au0G6ECJgNQy8wndKl-52" value="" style="endArrow=none;html=1;rounded=0;dashed=1;" edge="1" parent="1">
          <mxGeometry width="50" height="50" relative="1" as="geometry">
            <mxPoint x="360" y="760" as="sourcePoint" />
            <mxPoint x="520" y="760" as="targetPoint" />
          </mxGeometry>
        </mxCell>
        <mxCell id="v6Au0G6ECJgNQy8wndKl-57" value="" style="group" vertex="1" connectable="0" parent="1">
          <mxGeometry x="420" y="640" width="120" height="40" as="geometry" />
        </mxCell>
        <mxCell id="v6Au0G6ECJgNQy8wndKl-53" value="" style="endArrow=none;html=1;rounded=0;" edge="1" parent="v6Au0G6ECJgNQy8wndKl-57">
          <mxGeometry width="50" height="50" relative="1" as="geometry">
            <mxPoint y="40" as="sourcePoint" />
            <mxPoint x="80" y="40" as="targetPoint" />
          </mxGeometry>
        </mxCell>
        <mxCell id="v6Au0G6ECJgNQy8wndKl-54" value="" style="endArrow=none;html=1;rounded=0;" edge="1" parent="v6Au0G6ECJgNQy8wndKl-57">
          <mxGeometry width="50" height="50" relative="1" as="geometry">
            <mxPoint x="80" y="40" as="sourcePoint" />
            <mxPoint x="120" as="targetPoint" />
          </mxGeometry>
        </mxCell>
        <mxCell id="v6Au0G6ECJgNQy8wndKl-55" value="" style="endArrow=none;html=1;rounded=0;" edge="1" parent="v6Au0G6ECJgNQy8wndKl-57">
          <mxGeometry width="50" height="50" relative="1" as="geometry">
            <mxPoint y="40" as="sourcePoint" />
            <mxPoint x="40" as="targetPoint" />
          </mxGeometry>
        </mxCell>
        <mxCell id="v6Au0G6ECJgNQy8wndKl-56" value="" style="endArrow=none;html=1;rounded=0;" edge="1" parent="v6Au0G6ECJgNQy8wndKl-57">
          <mxGeometry width="50" height="50" relative="1" as="geometry">
            <mxPoint x="40" as="sourcePoint" />
            <mxPoint x="120" as="targetPoint" />
          </mxGeometry>
        </mxCell>
        <mxCell id="v6Au0G6ECJgNQy8wndKl-58" value="" style="endArrow=none;html=1;rounded=0;" edge="1" parent="1">
          <mxGeometry width="50" height="50" relative="1" as="geometry">
            <mxPoint x="280" y="840" as="sourcePoint" />
            <mxPoint x="420" y="680" as="targetPoint" />
          </mxGeometry>
        </mxCell>
        <mxCell id="v6Au0G6ECJgNQy8wndKl-59" value="" style="endArrow=none;html=1;rounded=0;" edge="1" parent="1">
          <mxGeometry width="50" height="50" relative="1" as="geometry">
            <mxPoint x="440" y="840" as="sourcePoint" />
            <mxPoint x="500" y="680" as="targetPoint" />
          </mxGeometry>
        </mxCell>
        <mxCell id="v6Au0G6ECJgNQy8wndKl-60" value="" style="endArrow=none;html=1;rounded=0;" edge="1" parent="1">
          <mxGeometry width="50" height="50" relative="1" as="geometry">
            <mxPoint x="520" y="760" as="sourcePoint" />
            <mxPoint x="540" y="640" as="targetPoint" />
          </mxGeometry>
        </mxCell>
        <mxCell id="v6Au0G6ECJgNQy8wndKl-62" value="" style="endArrow=none;html=1;rounded=0;" edge="1" parent="1">
          <mxGeometry width="50" height="50" relative="1" as="geometry">
            <mxPoint x="360" y="760" as="sourcePoint" />
            <mxPoint x="460" y="640" as="targetPoint" />
          </mxGeometry>
        </mxCell>
      </root>
    </mxGraphModel>
  </diagram>
</mxfile>
